Coordinates
version=1
nRows=43
nColumns=12
inDegrees=yes

Units are S.I. units (second, meters, Newtons, ...)
Angles are in degrees

endheader
time	SC_y	SC_z	SC_x	AC_y	AC_z	AC_x	GH_y	GH_z	GH_yy	EL_x	PS_y
       0.0              -44.46          20.89          10.54           38.9          -14.8          8.185          13.33          67.42          91.74          19.87          103.4
   0.03335              -44.45          20.89          10.54           38.9         -14.79          8.186          13.33          67.41          91.72          19.87          103.4
    0.0667              -44.45          20.89          10.54           38.9         -14.79          8.187          13.32           67.4           91.7          19.87          103.4
    0.1001              -44.45          20.89          10.54           38.9         -14.79          8.187          13.31          67.39          91.68          19.88          103.4
    0.1334              -44.45          20.89          10.54           38.9         -14.78          8.188           13.3          67.38          91.66          19.88          103.4
    0.1668              -44.44           20.9          10.54          38.91         -14.78          8.189          13.29          67.37          91.64          19.88          103.4
    0.2001              -44.44           20.9          10.54          38.91         -14.78           8.19          13.28          67.35          91.61          19.89          103.4
    0.2335              -44.43           20.9          10.54          38.91         -14.77          8.191          13.27          67.34          91.59          19.89          103.4
    0.2668              -44.43           20.9          10.54          38.91         -14.77          8.192          13.26          67.32          91.56           19.9          103.4
    0.3002              -44.43          20.91          10.54          38.92         -14.76          8.193          13.25           67.3          91.53           19.9          103.4
    0.3335              -44.42          20.91          10.54          38.92         -14.76          8.194          13.23          67.29           91.5           19.9          103.4
    0.3669              -44.42          20.91          10.54          38.92         -14.75          8.196          13.22          67.27          91.47          19.91          103.4
    0.4002              -44.41          20.91          10.54          38.93         -14.75          8.197           13.2          67.24          91.43          19.91          103.4
    0.4336               -44.4          20.92          10.54          38.93         -14.74          8.198          13.18          67.22          91.39          19.92          103.4
    0.4669               -44.4          20.92          10.53          38.94         -14.73            8.2          13.17           67.2          91.35          19.93          103.4
    0.5003              -44.39          20.92          10.53          38.94         -14.73          8.202          13.15          67.17           91.3          19.93          103.4
    0.5336              -44.38          20.93          10.53          38.95         -14.72          8.204          13.12          67.14          91.25          19.94          103.4
     0.567              -44.37          20.93          10.53          38.95         -14.71          8.206           13.1          67.11           91.2          19.95          103.4
    0.6003              -44.36          20.94          10.53          38.96          -14.7          8.208          13.08          67.07          91.14          19.96          103.4
    0.6337              -44.35          20.94          10.53          38.97         -14.69          8.211          13.05          67.03          91.07          19.97          103.4
     0.667              -44.34          20.95          10.53          38.98         -14.68          8.213          13.02          66.99           91.0          19.98          103.4
    0.7004              -44.33          20.95          10.53          38.99         -14.66          8.216          12.98          66.95          90.92          19.99          103.4
    0.7337              -44.32          20.96          10.53           39.0         -14.65           8.22          12.95          66.89          90.84           20.0          103.4
    0.7671               -44.3          20.97          10.53          39.01         -14.63          8.224           12.9          66.84          90.74          20.02          103.3
    0.8004              -44.29          20.98          10.53          39.02         -14.62          8.228          12.86          66.77          90.63          20.03          103.3
    0.8338              -44.27          20.99          10.53          39.03          -14.6          8.232          12.81           66.7          90.51          20.05          103.3
    0.8671              -44.25           21.0          10.53          39.05         -14.57          8.237          12.75          66.63          90.38          20.07          103.3
    0.9005              -44.22          21.01          10.52          39.06         -14.55          8.243          12.68          66.54          90.23          20.09          103.3
    0.9338               -44.2          21.03          10.52          39.08         -14.52           8.25          12.61          66.44          90.06          20.12          103.3
    0.9672              -44.17          21.04          10.52           39.1         -14.49          8.257          12.53          66.32          89.86          20.15          103.3
     1.001              -44.13          21.06          10.52          39.13         -14.45          8.266          12.43          66.19          89.64          20.18          103.3
     1.034              -44.09          21.08          10.52          39.16         -14.41          8.275          12.32          66.04          89.39          20.22          103.3
     1.067              -44.05           21.1          10.51          39.19         -14.36          8.287           12.2          65.87          89.09          20.26          103.3
     1.101              -43.99          21.13          10.51          39.23         -14.31            8.3          12.05          65.67          88.75          20.31          103.2
     1.134              -43.93          21.16          10.51          39.27         -14.24          8.315          11.88          65.44          88.35          20.37          103.2
     1.167              -43.86           21.2           10.5          39.32         -14.16          8.333          11.68          65.16          87.88          20.44          103.2
     1.201              -43.77          21.25           10.5          39.38         -14.07          8.355          11.44          64.83          87.33          20.52          103.2
     1.234              -43.67           21.3          10.49          39.46         -13.96           8.38          11.15          64.44          86.66          20.62          103.1
     1.267              -43.55          21.37          10.48          39.55         -13.83          8.411           10.8          63.96          85.85          20.74          103.1
     1.301              -43.39          21.45          10.47          39.66         -13.67          8.449          10.38          63.38          84.86          20.88          103.0
     1.334               -43.2          21.55          10.46          39.79         -13.47          8.496          9.851          62.67          83.64          21.06          103.0
     1.367              -42.97          21.67          10.45          39.96         -13.22          8.555          9.197          61.77          82.11          21.29          102.9
     1.401              -42.67          21.83          10.43          40.18          -12.9          8.628          8.373          60.64           80.2          21.57          102.8
